<?xml version="1.0" encoding="utf-8"?>
<!-- Generator: Adobe Illustrator 24.0.0, SVG Export Plug-In . SVG Version: 6.00 Build 0)  -->
<svg version="1.1" id="Layer_1" xmlns="http://www.w3.org/2000/svg" xmlns:xlink="http://www.w3.org/1999/xlink" x="0px" y="0px"
	 viewBox="0 0 512 418.13" style="enable-background:new 0 0 512 418.13;" xml:space="preserve">
<style type="text/css">
	.st0{fill:#757575;}
</style>
<g transform="translate(1 1)">
	<g>
		<g>
			<path class="st0" d="M336.07,161.99l-40.96,24.75c-14.51,8.53-29.87,16.21-44.37,23.04c-4.27,1.71-9.39,4.27-14.51,6.83
				c-17.92,9.39-27.31,29.01-23.04,48.64c3.41,15.36,16.21,28.16,31.57,31.57c3.41,0.85,6.83,0.85,10.24,0.85
				c16.21,0,30.72-9.39,38.4-23.89c1.71-4.27,4.27-9.39,6.83-14.51c7.68-14.51,14.51-29.87,23.04-44.37l24.75-40.96
				c1.71-3.41,0.85-6.83-1.71-10.24C343.75,160.28,339.48,160.28,336.07,161.99z M308.76,205.51
				c-9.39,15.36-17.07,30.72-23.89,46.08c-1.71,5.12-4.27,9.39-6.83,14.51c-5.12,11.09-17.07,16.21-29.01,13.65
				c-9.39-1.71-17.07-9.39-18.77-18.77c-2.56-11.95,2.56-23.89,13.65-29.01c4.27-2.56,9.39-4.27,14.51-6.83
				c15.36-7.68,31.57-15.36,46.08-23.89l11.09-6.83L308.76,205.51z"/>
			<path class="st0" d="M492.72,160.27c-0.11-0.57-0.27-1.15-0.49-1.7c-0.22-0.56-0.51-1.07-0.84-1.54
				c-12.79-30.62-31.36-58.26-54.35-81.57c-0.32-0.48-0.7-0.94-1.14-1.38s-0.9-0.81-1.38-1.14C388.23,27.29,324.76-1,255-1
				c-33.42,0-65.39,6.5-94.73,18.28c-0.57,0.11-1.15,0.27-1.7,0.49c-0.56,0.22-1.07,0.51-1.54,0.84
				C126.42,31.4,98.77,49.97,75.47,72.96c-0.48,0.32-0.94,0.7-1.38,1.14s-0.81,0.9-1.14,1.38C27.29,121.77-1,185.24-1,255
				c0,58.03,18.77,113.49,55.47,158.72c1.71,2.56,4.27,3.41,6.83,3.41h387.41c2.56,0,5.12-0.85,6.83-3.41
				C492.23,368.49,511,313.03,511,255C511,221.58,504.5,189.61,492.72,160.27z M445.29,400.07H65.56
				c-11.54-14.88-21.12-30.84-28.69-47.62l23.58-9.56c4.27-1.71,5.97-6.83,4.27-11.09c-1.71-4.27-6.83-5.97-11.09-4.27L30.5,336.9
				c-8.57-23.34-13.39-48.02-14.28-73.37H75.8c5.12,0,8.53-3.41,8.53-8.53c0-5.12-3.41-8.53-8.53-8.53H16.24
				c0.96-26.91,6.42-52.71,15.65-76.69l23.44,10.13c0.85,0.85,2.56,0.85,3.41,0.85c3.41,0,5.97-1.71,7.68-5.12
				c1.71-4.27,0-9.39-4.27-11.09l-23.67-10.24c10.7-22.83,24.91-43.72,41.92-61.97l17.59,17.59c1.71,1.71,3.41,2.56,5.97,2.56
				s4.27-0.85,5.97-2.56c3.41-3.41,3.41-8.53,0-11.95L92.34,80.4c19.12-17.83,41.13-32.58,65.24-43.44l9.52,23.48
				c0.85,3.41,4.27,5.12,7.68,5.12c0.85,0,1.71,0,3.41-0.85c4.27-1.71,5.97-6.83,4.27-11.09l-9.33-23.01
				c23.02-8.46,47.68-13.45,73.33-14.36V75.8c0,5.12,3.41,8.53,8.53,8.53s8.53-3.41,8.53-8.53V16.24
				c26.91,0.96,52.71,6.42,76.69,15.65l-10.13,23.44c-1.71,4.27,0,9.39,4.27,11.09c0.85,0.85,2.56,0.85,3.41,0.85
				c3.41,0,6.83-2.56,7.68-5.12l10.24-23.67c22.83,10.7,43.72,24.91,61.97,41.92l-17.59,17.59c-3.41,3.41-3.41,8.53,0,11.95
				c1.71,1.71,3.41,2.56,5.97,2.56c1.71,0,4.27-0.85,5.97-2.56l17.59-17.59c17.83,19.12,32.58,41.13,43.44,65.24l-23.48,9.52
				c-4.27,1.71-5.97,6.83-4.27,11.09c0.85,3.41,4.27,5.12,7.68,5.12c0.85,0,1.71-0.85,3.41-0.85l23.01-9.33
				c8.46,23.02,13.45,47.68,14.36,73.33H434.2c-5.12,0-8.53,3.41-8.53,8.53c0,5.12,3.41,8.53,8.53,8.53h59.58
				c-0.93,26.59-6.17,52.45-15.42,76.8l-23.68-10.24c-4.27-1.71-9.39,0-11.09,4.27c-1.71,4.27,0,9.39,4.27,11.09l23.98,10.37
				C464.64,371.36,455.77,386.19,445.29,400.07z"/>
		</g>
	</g>
</g>
</svg>
