<?xml version="1.0" encoding="utf-8"?>
<!-- Generator: Adobe Illustrator 24.0.0, SVG Export Plug-In . SVG Version: 6.00 Build 0)  -->
<svg version="1.1" id="Layer_1" xmlns="http://www.w3.org/2000/svg" xmlns:xlink="http://www.w3.org/1999/xlink" x="0px" y="0px"
	 viewBox="0 0 470 327.9" style="enable-background:new 0 0 470 327.9;" xml:space="preserve">
<style type="text/css">
	.st0{fill:#757575;}
</style>
<g>
	<path class="st0" d="M126.18,287.9c19.3,0,35-15.7,35-35s-15.7-35-35-35s-35,15.7-35,35S106.88,287.9,126.18,287.9z M126.18,232.9
		c11.03,0,20,8.97,20,20s-8.97,20-20,20s-20-8.97-20-20S115.15,232.9,126.18,232.9z"/>
	<path class="st0" d="M343.82,217.9c-19.3,0-35,15.7-35,35s15.7,35,35,35s35-15.7,35-35S363.12,217.9,343.82,217.9z M343.82,272.9
		c-11.03,0-20-8.97-20-20s8.97-20,20-20s20,8.97,20,20S354.85,272.9,343.82,272.9z"/>
	<path class="st0" d="M137.5,45h23.78c4.14,0,7.5-3.36,7.5-7.5s-3.36-7.5-7.5-7.5H137.5c-10.42,0-27.03,7.18-34.18,14.77
		l-60.09,63.85c-2.05,2.18-2.61,5.37-1.42,8.12c1.19,2.75,3.89,4.52,6.89,4.52h290.27c2.56,0,4.95-1.31,6.32-3.47
		c1.38-2.16,1.56-4.87,0.48-7.2l-30.85-66.36C311.6,37.18,300.29,30,292.5,30H191.28c-4.14,0-7.5,3.36-7.5,7.5l0,68.75H66.06
		l48.19-51.2C118.49,50.54,131.31,45,137.5,45L137.5,45z M198.78,45h93.7c2.2,0.1,7.84,3.68,8.85,5.58l25.88,55.67H198.78L198.78,45
		L198.78,45z"/>
	<path class="st0" d="M470,186.64c0-26.63-20.55-55.15-45.82-63.57c-0.02-0.01-35.08-11.69-35.08-11.69
		c-5.85-1.95-13.58-8.81-16.2-14.39l-30.84-65.54C333.76,13.82,311.99,0,292.5,0h-155c-18.64,0-43.25,10.63-56.02,24.21L12.32,97.69
		C5.41,105.03,0,118.67,0,128.75v94.15c0,20.68,16.82,37.5,37.5,37.5h14.06c3.78,37.85,35.8,67.5,74.62,67.5s70.85-29.65,74.62-67.5
		h45.51c4.14,0,7.5-3.36,7.5-7.5s-3.36-7.5-7.5-7.5h-45.51c-3.77-37.85-35.8-67.5-74.62-67.5s-70.85,29.65-74.62,67.5H37.5
		c-12.41,0-22.5-10.09-22.5-22.5v-94.15c0-6.29,3.93-16.2,8.24-20.78L92.4,34.49C102.34,23.92,123,15,137.5,15h155
		c13.68,0,30.16,10.46,35.99,22.84l30.84,65.54c4.42,9.4,15.18,18.96,25.03,22.24l28.5,9.5c-0.49,2.84-0.75,5.73-0.75,8.64
		c0,25.24,18.65,46.2,42.89,49.83v29.32c0,12.41-8.36,22.5-18.63,22.5h-17.93c-3.77-37.85-35.8-67.5-74.62-67.5
		c-41.36,0-75,33.64-75,75s33.64,75,75,75c38.82,0,70.85-29.65,74.62-67.5h17.93c18.54,0,33.63-16.82,33.63-37.5L470,186.64
		L470,186.64z M126.18,192.9c33.08,0,60,26.92,60,60s-26.92,60-60,60s-60-26.92-60-60S93.1,192.9,126.18,192.9z M343.82,312.9
		c-33.08,0-60-26.92-60-60s26.92-60,60-60s60,26.92,60,60S376.9,312.9,343.82,312.9z M427.11,143.75c0-0.97,0.04-1.93,0.12-2.89
		c13.16,7.63,23.79,22.37,26.86,37.27C438.62,174.34,427.11,160.37,427.11,143.75L427.11,143.75z"/>
</g>
</svg>
